<?xml version="1.0" encoding="utf-8"?>
<!-- Generator: Adobe Illustrator 22.0.1, SVG Export Plug-In . SVG Version: 6.00 Build 0)  -->
<svg version="1.1" id="Layer_1" xmlns="http://www.w3.org/2000/svg" xmlns:xlink="http://www.w3.org/1999/xlink" x="0px" y="0px"
	 viewBox="0 0 448 106" style="enable-background:new 0 0 448 106;" xml:space="preserve">
<style type="text/css">
	.st0{fill:#F26523;}
</style>
<title>Schneider_RGB Register</title>
<path class="st0" d="M103.2,32.3c0.4-5-2.2-7.9-7.2-7.9c-5.5,0-9.7,4.8-11.4,14c-1.2,6.8-0.8,13.1,7.2,13.1c5.1,0,8.1-3.5,9.5-8.1
	h15.2c-3.6,12.4-13.8,19.9-26.5,19.9c-15.9,0-23.8-9.8-21-25.4s15-25.3,28.5-25.3c14.7,0,21.6,7.3,20.7,19.6L103.2,32.3z"/>
<path class="st0" d="M52.9,26.9c0.1-1.4-0.6-2.7-1.8-3.4c-1.2-0.6-2.6-1-4-0.9c-3.6,0-5.4,1-5.7,2.8c-1.3,7.5,28.1,2.8,24.9,20.9
	c-2,11.5-12.6,17.1-26.3,17.1c-13.1,0-20.3-7.7-19.1-16.6h15.6c-0.1,1.6,0.7,3.1,2,3.9c1.3,0.8,2.8,1.3,4.4,1.2c4.1,0,7-1.3,7.4-3.7
	C51.7,40.8,22.2,46,25.5,27c1.9-10.6,11.9-15.9,24.4-15.9c13.8,0,18.9,7,18.5,15.8L52.9,26.9z"/>
<polygon class="st0" points="124.2,13.6 139.8,13.6 137.1,29.7 151.6,29.7 154.3,13.6 170.1,13.6 161.8,62.2 146.1,62.2 149.2,43.5 
	134.5,43.5 131.1,62.4 115.5,62.4 "/>
<polygon class="st0" points="167.2,62.2 175.6,13.5 190.3,13.5 203.3,37.3 207.1,13.5 221.8,13.5 213.2,62.3 198.8,62.3 185.8,41.1 
	182.2,62.3 "/>
<polygon class="st0" points="227.7,13.5 266.6,13.5 264.7,24.8 241.3,24.8 240.2,31.9 255.7,31.9 254,43.1 238.2,43.1 237,50.8 
	261.2,50.8 259.2,62.1 219.4,62.1 "/>
<polygon class="st0" points="343.2,13.5 382.1,13.5 380.2,24.8 356.8,24.8 355.8,31.9 371.2,31.9 369.5,43.1 353.7,43.1 352.5,50.8 
	376.7,50.8 374.7,62.1 334.9,62.1 "/>
<polygon class="st0" points="272,13.6 287.6,13.6 279.1,62.2 263.7,62.2 "/>
<path class="st0" d="M293.3,13.5h22.9c0,0,16.8-0.2,19.2,13.6s-6.8,27.2-11.8,30.4s-8.7,4.8-19.9,4.8h-19L293.3,13.5z M302.5,50.1
	c12.3,0,13.7-3.4,15.4-5.5c2.1-2.6,4.2-11.3,2.4-15.6c-2.2-5.5-13.2-4-13.2-4L302.5,50.1z"/>
<path class="st0" d="M386.4,13.5h25.9c0,0,13.4-1,15.3,7.8s-1.8,15.5-9.7,18.1c0,0,7.8,1.3,6.6,8.3s-2.6,14.4-2.6,14.4h-15.3
	l1.8-11.2c0,0,1.7-5.8-5.8-5.8h-5.8l-3,16.9h-15.7L386.4,13.5z M398.6,34.6c0,0,8,0.4,11.1-0.8s4.7-5.6,1.9-7.8
	c-2-1.6-11.3-1.2-11.3-1.2L398.6,34.6z"/>
<polygon class="st0" points="13,94 16.6,72.9 180.3,72.9 177.5,89.2 197,73 420.7,73 417.1,94 "/>
<path class="st0" d="M438.3,17.2c0.1,2.1-1.6,3.9-3.7,4c-2.1,0.1-3.9-1.6-4-3.7s1.6-3.9,3.7-4c0,0,0.1,0,0.1,0
	C436.6,13.4,438.3,15.1,438.3,17.2C438.3,17.2,438.3,17.2,438.3,17.2z M431.6,17.2c0,1.6,1.2,2.9,2.8,3c0,0,0.1,0,0.1,0
	c1.6,0,2.9-1.3,2.9-2.9c0,0,0-0.1,0-0.1c0.1-1.6-1.1-3-2.7-3.1c-1.6-0.1-3,1.1-3.1,2.7C431.6,17,431.6,17.1,431.6,17.2z M433.9,19.2
	H433v-3.8c0.5-0.1,1-0.1,1.4-0.1c0.5,0,0.9,0.1,1.3,0.3c0.2,0.2,0.4,0.5,0.4,0.8c0,0.4-0.4,0.8-0.8,0.9l0,0c0.4,0.2,0.6,0.5,0.7,0.9
	c0,0.3,0.1,0.6,0.3,0.9h-0.9c-0.1-0.3-0.2-0.6-0.3-0.9c-0.1-0.4-0.3-0.6-0.8-0.6h-0.4L433.9,19.2z M433.9,17.1h0.4
	c0.5,0,0.9-0.2,0.9-0.5s-0.2-0.6-0.8-0.6c-0.2,0-0.3,0-0.5,0V17.1z"/>
</svg>
